# xmcd
#
# Track frame offsets: 
#        150
#        13218
#        26412
#        42655
#        59530
#        72951
#        120537
#        136594
#        152739
#        180495
#        207041
#        250191
#
# Disc length: 3573 seconds
#
# Revision: 0
# Processed by: cddbd v1.5.2PL0 Copyright (c) Steve Scherf et al.
# Submitted via: ExactAudioCopy v0.95b3
#
DISCID=a00df30c
DTITLE=Gary Moore - Bad For You Baby
DYEAR=2008
DGENRE=Blues
TTITLE0=Bad For You baby
TTITLE1=Down The Line
TTITLE2=Umbrella Man
TTITLE3=Holding On
TTITLE4=Walkin' Thru The Park
TTITLE5=I Love You More Than You'll Ever Know
TTITLE6=Mojo Boogie
TTITLE7=Someday Baby
TTITLE8=Did you Ever Feel Lonely?
TTITLE9=Preacher Man Blues
TTITLE10=Trouble Ain't Far Behind
TTITLE11=Picture On the Wall
EXTD=
EXTT0=
EXTT1=
EXTT2=
EXTT3=
EXTT4=
EXTT5=
EXTT6=
EXTT7=
EXTT8=
EXTT9=
EXTT10=
EXTT11=
PLAYORDER=
